<svg width="15" height="15" fill="none" xmlns="http://www.w3.org/2000/svg"><path d="M11.57 12.163a1.019 1.019 0 01-.216 1.514l-1.465 1.051c-1.44 1.045-4.666-.964-7.212-4.475C.13 6.743-.753 3.047.687 2.003L2.132.951a1.02 1.02 0 011.502.284l.97 1.854a1.428 1.428 0 01-.074 1.428l-.563.884a1.428 1.428 0 000 1.508l.31.519c.47.785 1.007 1.527 1.606 2.219l.396.457a1.428 1.428 0 001.446.445l1.001-.266a1.427 1.427 0 011.378.377l1.465 1.502zm-1.285-5.439a.804.804 0 001.032-.476 2.435 2.435 0 00-2.244-3.281.803.803 0 100 1.607.828.828 0 01.767 1.118.804.804 0 00.445 1.032zm3.034-4.382A5.643 5.643 0 008.801 0a.803.803 0 000 1.607 4.08 4.08 0 013.758 5.5.803.803 0 101.508.557 5.687 5.687 0 00-.748-5.322z" fill="#fff"/></svg>