<svg width="17" height="14" fill="none" xmlns="http://www.w3.org/2000/svg"><path d="M16.484 2.038a6.806 6.806 0 01-1.874.512A3.222 3.222 0 0016.04.76a6.518 6.518 0 01-2.062.784A3.266 3.266 0 0011.602.52c-1.8 0-3.25 1.454-3.25 3.238 0 .256.022.503.076.738A9.22 9.22 0 011.724 1.11a3.248 3.248 0 00-.445 1.636c0 1.121.58 2.115 1.445 2.69a3.223 3.223 0 01-1.47-.398v.035A3.256 3.256 0 003.86 8.254a3.26 3.26 0 01-.853.107 2.86 2.86 0 01-.616-.056 3.281 3.281 0 003.04 2.255 6.554 6.554 0 01-4.033 1.381 6.21 6.21 0 01-.778-.044 9.186 9.186 0 004.989 1.453c5.985 0 9.256-4.935 9.256-9.212 0-.144-.005-.282-.011-.419a6.472 6.472 0 001.63-1.68z" fill="#fff"/></svg>