<svg width="86" height="20" fill="none" xmlns="http://www.w3.org/2000/svg"><path d="M6.296 19.168c-1.12 0-2.128-.192-3.024-.576-.896-.4-1.6-.96-2.112-1.68s-.768-1.56-.768-2.52H3.32c.064.72.344 1.312.84 1.776.512.464 1.224.696 2.136.696.944 0 1.68-.224 2.208-.672.528-.464.792-1.056.792-1.776 0-.56-.168-1.016-.504-1.368a3.167 3.167 0 00-1.224-.816c-.48-.192-1.152-.4-2.016-.624-1.088-.288-1.976-.576-2.664-.864A4.508 4.508 0 011.16 9.352C.68 8.728.44 7.896.44 6.856c0-.96.24-1.8.72-2.52S2.312 3.064 3.176 2.68c.864-.384 1.864-.576 3-.576 1.616 0 2.936.408 3.96 1.224 1.04.8 1.616 1.904 1.728 3.312H8.84c-.048-.608-.336-1.128-.864-1.56-.528-.432-1.224-.648-2.088-.648-.784 0-1.424.2-1.92.6-.496.4-.744.976-.744 1.728 0 .512.152.936.456 1.272.32.32.72.576 1.2.768.48.192 1.136.4 1.968.624 1.104.304 2 .608 2.688.912a4.349 4.349 0 011.776 1.416c.496.624.744 1.464.744 2.52 0 .848-.232 1.648-.696 2.4-.448.752-1.112 1.36-1.992 1.824-.864.448-1.888.672-3.072.672zm7.876-6.84c0-1.328.272-2.504.816-3.528.56-1.024 1.312-1.816 2.256-2.376a6.042 6.042 0 013.168-.864c1.04 0 1.944.208 2.712.624.784.4 1.408.904 1.872 1.512v-1.92h2.76V19h-2.76v-1.968c-.464.624-1.096 1.144-1.896 1.56-.8.416-1.712.624-2.736.624a5.875 5.875 0 01-3.12-.864c-.944-.592-1.696-1.408-2.256-2.448-.544-1.056-.816-2.248-.816-3.576zm10.824.048c0-.912-.192-1.704-.576-2.376-.368-.672-.856-1.184-1.464-1.536a3.862 3.862 0 00-1.968-.528c-.704 0-1.36.176-1.968.528-.608.336-1.104.84-1.488 1.512-.368.656-.552 1.44-.552 2.352 0 .912.184 1.712.552 2.4.384.688.88 1.216 1.488 1.584.624.352 1.28.528 1.968.528.704 0 1.36-.176 1.968-.528.608-.352 1.096-.864 1.464-1.536.384-.688.576-1.488.576-2.4zm11.698-4.368h-2.448V19h-2.76V8.008h-1.56V5.776h1.56V4.84c0-1.52.4-2.624 1.2-3.312.816-.704 2.088-1.056 3.816-1.056v2.28c-.832 0-1.416.16-1.752.48-.336.304-.504.84-.504 1.608v.936h2.448v2.232zm14.345 4.056c0 .496-.032.944-.096 1.344H40.839c.08 1.056.472 1.904 1.176 2.544.704.64 1.568.96 2.592.96 1.472 0 2.512-.616 3.12-1.848h2.952c-.4 1.216-1.128 2.216-2.184 3-1.04.768-2.336 1.152-3.888 1.152-1.264 0-2.4-.28-3.408-.84a6.278 6.278 0 01-2.352-2.4c-.56-1.04-.84-2.24-.84-3.6 0-1.36.272-2.552.816-3.576.56-1.04 1.336-1.84 2.328-2.4 1.008-.56 2.16-.84 3.456-.84 1.248 0 2.36.272 3.336.816a5.746 5.746 0 012.28 2.304c.544.976.816 2.104.816 3.384zm-2.856-.864c-.016-1.008-.376-1.816-1.08-2.424-.704-.608-1.576-.912-2.616-.912-.944 0-1.752.304-2.424.912-.672.592-1.072 1.4-1.2 2.424h7.32zm35.748 7.968c-.496 0-.912-.168-1.248-.504a1.695 1.695 0 01-.504-1.248c0-.496.168-.912.504-1.248a1.695 1.695 0 011.248-.504c.48 0 .888.168 1.224.504.336.336.504.752.504 1.248s-.168.912-.504 1.248a1.666 1.666 0 01-1.224.504z" fill="#fff"/><path d="M52.62 12.376c0-1.36.271-2.552.815-3.576.56-1.04 1.328-1.84 2.304-2.4.976-.56 2.096-.84 3.36-.84 1.6 0 2.92.384 3.96 1.152 1.056.752 1.768 1.832 2.136 3.24h-2.952c-.24-.656-.624-1.168-1.152-1.536-.528-.368-1.192-.552-1.992-.552-1.12 0-2.016.4-2.688 1.2-.656.784-.984 1.888-.984 3.312s.328 2.536.984 3.336c.672.8 1.568 1.2 2.688 1.2 1.584 0 2.632-.696 3.144-2.088h2.952c-.384 1.344-1.104 2.416-2.16 3.216-1.056.784-2.368 1.176-3.936 1.176-1.264 0-2.384-.28-3.36-.84a6.159 6.159 0 01-2.304-2.4c-.544-1.04-.816-2.24-.816-3.6zm20.838 6.84c-1.248 0-2.376-.28-3.384-.84a6.227 6.227 0 01-2.376-2.4c-.576-1.04-.864-2.24-.864-3.6 0-1.344.296-2.536.888-3.576a6.134 6.134 0 012.424-2.4c1.024-.56 2.168-.84 3.432-.84 1.264 0 2.408.28 3.432.84a6.134 6.134 0 012.424 2.4c.592 1.04.888 2.232.888 3.576 0 1.344-.304 2.536-.912 3.576a6.377 6.377 0 01-2.496 2.424c-1.04.56-2.192.84-3.456.84zm0-2.376c.704 0 1.36-.168 1.968-.504.624-.336 1.128-.84 1.512-1.512.384-.672.576-1.488.576-2.448s-.184-1.768-.552-2.424c-.368-.672-.856-1.176-1.464-1.512a4.004 4.004 0 00-1.968-.504c-.704 0-1.36.168-1.968.504-.592.336-1.064.84-1.416 1.512-.352.656-.528 1.464-.528 2.424 0 1.424.36 2.528 1.08 3.312.736.768 1.656 1.152 2.76 1.152z" fill="#FFCD28"/></svg>