<svg width="24" height="18" fill="none" xmlns="http://www.w3.org/2000/svg"><path d="M22 0a1 1 0 00-1 1 1 1 0 01-2 0 1 1 0 00-2 0 1 1 0 01-2 0 1 1 0 00-2 0 1 1 0 01-2 0 1 1 0 00-2 0 1 1 0 01-2 0 1 1 0 00-2 0 1 1 0 01-2 0 1 1 0 00-1-1 2 2 0 00-2 2v14a2 2 0 002 2 1 1 0 001-1 1 1 0 112 0 1 1 0 102 0 1 1 0 112 0 1 1 0 102 0 1 1 0 012 0 1 1 0 002 0 1 1 0 012 0 1 1 0 002 0 1 1 0 012 0 1 1 0 001 1 2 2 0 002-2V2a2 2 0 00-2-2zm-6.36 9.85L10.53 13A1 1 0 019 12.2V5.8a1 1 0 011.53-.8l5.11 3.2a1 1 0 010 1.65z" fill="#1787FB"/></svg>