<svg width="82" height="20" fill="none" xmlns="http://www.w3.org/2000/svg"><path d="M6.44 19.168c-1.168 0-2.224-.2-3.168-.6-.928-.4-1.664-.976-2.208-1.728-.544-.752-.824-1.64-.84-2.664h3.6c.048.688.288 1.232.72 1.632.448.4 1.056.6 1.824.6.784 0 1.4-.184 1.848-.552.448-.384.672-.88.672-1.488 0-.496-.152-.904-.456-1.224A3.053 3.053 0 007.28 12.4c-.448-.192-1.072-.4-1.872-.624-1.088-.32-1.976-.632-2.664-.936A4.937 4.937 0 01.992 9.424c-.48-.64-.72-1.488-.72-2.544 0-.992.248-1.856.744-2.592s1.192-1.296 2.088-1.68c.896-.4 1.92-.6 3.072-.6 1.728 0 3.128.424 4.2 1.272 1.088.832 1.688 2 1.8 3.504H8.48c-.032-.576-.28-1.048-.744-1.416-.448-.384-1.048-.576-1.8-.576-.656 0-1.184.168-1.584.504-.384.336-.576.824-.576 1.464 0 .448.144.824.432 1.128.304.288.672.528 1.104.72.448.176 1.072.384 1.872.624 1.088.32 1.976.64 2.664.96.688.32 1.28.8 1.776 1.44.496.64.744 1.48.744 2.52a4.74 4.74 0 01-.696 2.496c-.464.768-1.144 1.384-2.04 1.848-.896.448-1.96.672-3.192.672zm6.977-6.864c0-1.344.264-2.536.792-3.576.544-1.04 1.272-1.84 2.184-2.4.928-.56 1.96-.84 3.096-.84.992 0 1.856.2 2.592.6.752.4 1.352.904 1.8 1.512V5.704h3.384V19h-3.384v-1.944c-.432.624-1.032 1.144-1.8 1.56-.752.4-1.624.6-2.616.6a5.71 5.71 0 01-3.072-.864c-.912-.576-1.64-1.384-2.184-2.424-.528-1.056-.792-2.264-.792-3.624zm10.464.048c0-.816-.16-1.512-.48-2.088-.32-.592-.752-1.04-1.296-1.344a3.397 3.397 0 00-1.752-.48c-.624 0-1.2.152-1.728.456-.528.304-.96.752-1.296 1.344-.32.576-.48 1.264-.48 2.064s.16 1.504.48 2.112c.336.592.768 1.048 1.296 1.368.544.32 1.12.48 1.728.48.624 0 1.208-.152 1.752-.456.544-.32.976-.768 1.296-1.344.32-.592.48-1.296.48-2.112zm11.762-3.888h-2.328V19h-3.408V8.464h-1.512v-2.76h1.512v-.672c0-1.632.464-2.832 1.392-3.6.928-.768 2.328-1.128 4.2-1.08v2.832c-.816-.016-1.384.12-1.704.408-.32.288-.48.808-.48 1.56v.552h2.328v2.76zm13.537 3.6c0 .48-.032.912-.096 1.296h-9.72c.08.96.416 1.712 1.008 2.256.592.544 1.32.816 2.184.816 1.248 0 2.136-.536 2.664-1.608h3.624c-.384 1.28-1.12 2.336-2.208 3.168-1.088.816-2.424 1.224-4.008 1.224-1.28 0-2.432-.28-3.456-.84a6.182 6.182 0 01-2.376-2.424c-.56-1.04-.84-2.24-.84-3.6 0-1.376.28-2.584.84-3.624a5.861 5.861 0 012.352-2.4c1.008-.56 2.168-.84 3.48-.84 1.264 0 2.392.272 3.384.816a5.63 5.63 0 012.328 2.328c.56.992.84 2.136.84 3.432zm-3.48-.96c-.016-.864-.328-1.552-.936-2.064-.608-.528-1.352-.792-2.232-.792-.832 0-1.536.256-2.112.768-.56.496-.904 1.192-1.032 2.088H45.7z" fill="#1D263A"/><path d="M49.769 12.352c0-1.376.28-2.576.84-3.6.56-1.04 1.336-1.84 2.328-2.4.992-.576 2.128-.864 3.408-.864 1.648 0 3.008.416 4.08 1.248 1.088.816 1.816 1.968 2.184 3.456h-3.624c-.192-.576-.52-1.024-.984-1.344-.448-.336-1.008-.504-1.68-.504-.96 0-1.72.352-2.28 1.056-.56.688-.84 1.672-.84 2.952 0 1.264.28 2.248.84 2.952.56.688 1.32 1.032 2.28 1.032 1.36 0 2.248-.608 2.664-1.824h3.624c-.368 1.44-1.096 2.584-2.184 3.432-1.088.848-2.448 1.272-4.08 1.272-1.28 0-2.416-.28-3.408-.84a6.108 6.108 0 01-2.328-2.4c-.56-1.04-.84-2.248-.84-3.624zm20.205 6.864c-1.28 0-2.432-.28-3.456-.84a6.301 6.301 0 01-2.424-2.424c-.576-1.04-.864-2.24-.864-3.6 0-1.36.296-2.56.888-3.6a6.253 6.253 0 012.472-2.4c1.04-.576 2.2-.864 3.48-.864 1.28 0 2.44.288 3.48.864a6.091 6.091 0 012.448 2.4c.608 1.04.912 2.24.912 3.6 0 1.36-.312 2.56-.936 3.6a6.377 6.377 0 01-2.496 2.424c-1.04.56-2.208.84-3.504.84zm0-2.928c.608 0 1.176-.144 1.704-.432.544-.304.976-.752 1.296-1.344.32-.592.48-1.312.48-2.16 0-1.264-.336-2.232-1.008-2.904-.656-.688-1.464-1.032-2.424-1.032s-1.768.344-2.424 1.032c-.64.672-.96 1.64-.96 2.904s.312 2.24.936 2.928c.64.672 1.44 1.008 2.4 1.008zm9.889 2.88c-.608 0-1.112-.184-1.512-.552a1.925 1.925 0 01-.576-1.416c0-.56.192-1.024.576-1.392.4-.384.904-.576 1.512-.576.592 0 1.08.192 1.464.576.384.368.576.832.576 1.392 0 .56-.192 1.032-.576 1.416-.384.368-.872.552-1.464.552z" fill="#FFCD28"/></svg>