<svg width="160" height="24" fill="none" xmlns="http://www.w3.org/2000/svg"><mask id="mask0_32_362" style="mask-type:alpha" maskUnits="userSpaceOnUse" x="0" y="0" width="160" height="24"><path fill-rule="evenodd" clip-rule="evenodd" d="M41.61 0c-6.67 0-12.098 5.383-12.098 12s5.426 12 12.097 12c6.671 0 12.098-5.383 12.098-12S48.28 0 41.609 0zm0 19.884c-4.384 0-7.95-3.537-7.95-7.885s3.566-7.885 7.95-7.885c4.383 0 7.949 3.537 7.949 7.884s-3.566 7.885-7.95 7.885zM19.963 21.81l-.177-16.269-5.526 13.114c-.429.985-1.03 1.464-1.84 1.464-.788 0-1.458-.533-1.84-1.462L5.056 5.542l-.177 16.27c-.01 1.226-.816 1.959-2.155 1.959-.657 0-1.196-.197-1.558-.568-.34-.348-.516-.85-.497-1.41l.48-15.554.104-3.422c.066-1.56 1.815-2.77 3.275-2.77C6.695.046 7.6 1.798 7.89 2.553l4.533 11.579 4.525-11.571C17.704.869 18.806.046 20.315.046c1.459 0 3.207 1.21 3.274 2.768l.054 1.752.53 17.227c.02.56-.157 1.061-.496 1.41-.362.371-.901.568-1.558.568-1.34 0-2.145-.733-2.155-1.96zM59.751 2.338c0-1.307.837-2.087 2.24-2.087l6.593.002c3.467 0 5.984 2.324 5.984 5.527 0 2.081-1.458 4.82-3.817 5.312l.025.042c3.3.251 5.801 2.807 5.818 5.697.01 1.94-.598 3.579-1.76 4.739-1.31 1.306-3.294 1.996-5.735 1.996h-7.073c-1.36 0-2.276-.852-2.276-2.12V2.337zm4.208 17.668h4.522c2.248 0 3.7-1.347 3.7-3.43 0-1.979-1.538-3.16-4.112-3.16h-4.11v6.59zm0-10.15h3.149c2.007 0 3.253-1.21 3.253-3.159 0-1.726-1.308-2.885-3.253-2.885h-3.15v6.044zM110.122.251c-1.21 0-1.863.97-1.863 1.883 0 .912.489 1.882 1.863 1.882h4.214v17.566c0 1.37.786 2.189 2.104 2.189s2.104-.819 2.104-2.19V4.016h4.215c1.374 0 1.864-.972 1.864-1.882 0-.91-.653-1.883-1.864-1.883h-12.637zm19.655 1.985c0-1.37.786-2.19 2.104-2.19 1.317 0 2.104.82 2.104 2.19v19.346c0 1.37-.787 2.189-2.104 2.189-1.318 0-2.104-.819-2.104-2.19V2.237zm27.379-2.19c-.646 0-1.405.437-1.846 1.062l-5.279 7.246-5.274-7.24c-.444-.63-1.205-1.067-1.85-1.067-1.259 0-2.139.83-2.139 2.018 0 .413.157.834.452 1.214l6.241 8.604-6.198 8.508c-.24.326-.495.88-.495 1.463 0 1.147.861 1.917 2.139 1.917.725 0 1.295-.303 1.745-.928l5.379-7.416 5.379 7.415c.45.625 1.021.929 1.746.929 1.279 0 2.138-.77 2.138-1.917 0-.582-.254-1.137-.493-1.462l-6.199-8.51 6.237-8.598c.299-.385.455-.805.455-1.219 0-1.188-.879-2.018-2.138-2.018zM81.542 12c0-6.617 5.427-12 12.097-12s12.097 5.383 12.097 12-5.426 12-12.097 12c-6.67 0-12.097-5.383-12.097-12zm4.148-.001c0 4.348 3.565 7.885 7.95 7.885 4.382 0 7.948-3.539 7.948-7.886 0-4.347-3.566-7.884-7.949-7.884S85.69 7.65 85.69 11.999z" fill="#004494"/></mask><g mask="url(#mask0_32_362)"><path fill="#606775" d="M.667-.635h158.63v25.381H.667z"/></g></svg>