<svg width="97" height="26" fill="none" xmlns="http://www.w3.org/2000/svg"><path fill-rule="evenodd" clip-rule="evenodd" d="M11.284 24.16c-.553.057-1.114.115-1.688.186L4.988 11.014v13.899c-1.44.142-2.736.33-4.128.567V0H4.7l5.232 14.466V0h4.08v23.826c-.902.147-1.803.24-2.728.335zM24.816 9.312c.954-.023 1.885-.046 2.588-.046v3.971c-1.776 0-3.888 0-5.424.095v5.909c.748-.045 1.5-.095 2.257-.145 1.622-.107 3.258-.216 4.895-.28v3.829l-11.184.85V0h11.184v3.97H21.98v5.39c.81 0 1.835-.025 2.835-.049zm15.116-5.293h4.176s0-4.018.048-4.018H31.724v4.018H35.9V22.36c1.296-.047 2.688-.047 4.032-.047V4.018zm10.752 5.058h5.52v3.971h-5.52v9.03H46.7V0h11.28v3.97h-7.296v5.106zm18.058 9.692c-1.388-.08-2.787-.161-4.186-.19V0h-4.032v22.313c3.696.094 7.296.283 10.896.52v-3.924c-.886-.037-1.78-.089-2.678-.14zm7.448 4.435c.865.052 1.744.104 2.622.197V0h-3.984v23.116c.449.033.904.06 1.362.087zm15.15-11.101L96.476 0h-4.464L89.18 6.665 86.54 0h-4.32l4.704 11.96-5.184 11.63c.576.075 1.152.135 1.728.196.864.09 1.728.181 2.592.323l2.976-6.76 2.88 7.375c.538.082 1.07.171 1.6.26.984.163 1.962.326 2.96.449L91.34 12.102z" fill="#8C98A4"/></svg>