<svg width="28" height="36" fill="none" xmlns="http://www.w3.org/2000/svg"><path d="M20.151 27.273a.758.758 0 011.061.697v7.242a.758.758 0 01-1.045.697l-5.41-2.121a3.03 3.03 0 00-2.257 0l-5.394 2.167a.757.757 0 01-1.045-.713V28a.758.758 0 011.06-.727 15.045 15.045 0 0013.03 0zm7.122-13.637a13.636 13.636 0 11-27.272 0 13.636 13.636 0 0127.272 0zM19.258 9.53a1.515 1.515 0 00-2.137 0l-5 5-1.954-1.97a1.522 1.522 0 00-2.152 2.152l3.03 3.03a1.515 1.515 0 002.137 0l6.06-6.06a1.516 1.516 0 00.016-2.152z" fill="#0A043C"/></svg>