<svg width="28" height="36" fill="none" xmlns="http://www.w3.org/2000/svg"><g clip-path="url(#clip0_32_176)"><path d="M12.777 35.674l-1.889-1.523A28.203 28.203 0 010 11.948v-4.02A3.046 3.046 0 011.812 5.14L13.082.13a1.523 1.523 0 011.233 0l11.284 5.01a3.045 3.045 0 011.812 2.786v4.02a28.203 28.203 0 01-10.888 22.265l-1.889 1.522a1.522 1.522 0 01-1.857-.06z" fill="#0A043C"/><path fill-rule="evenodd" clip-rule="evenodd" d="M19.68 14.32a1.091 1.091 0 010 1.542l-6.545 6.546a1.091 1.091 0 01-1.543 0L8.32 19.135a1.09 1.09 0 011.542-1.543l2.502 2.502 5.774-5.775a1.091 1.091 0 011.542 0z" fill="#fff"/></g><defs><clipPath id="clip0_32_176"><path fill="#fff" d="M0 0h27.411v36H0z"/></clipPath></defs></svg>