<svg width="36" height="34" fill="none" xmlns="http://www.w3.org/2000/svg"><g clip-path="url(#clip0_32_192)"><path d="M35.022 20.867v4.378a2.919 2.919 0 01-2.525 2.918A6.26 6.26 0 0126.267 34H18.97a1.897 1.897 0 01-1.897-1.897v-2.48a1.897 1.897 0 113.794 0v.583h5.4a2.48 2.48 0 002.436-2.087 2.919 2.919 0 01-2.437-2.918v-4.378a4.378 4.378 0 118.756.044zM17.905 3.794a11.674 11.674 0 0110.944 8.07 1.899 1.899 0 003.604-1.197A15.395 15.395 0 0017.905 0 15.57 15.57 0 002.539 15.687v.846A2.919 2.919 0 000 19.408v4.377a4.378 4.378 0 008.755 0v-4.377a2.919 2.919 0 00-2.451-2.919v-.773a11.79 11.79 0 0111.6-11.922z" fill="#0A043C"/></g><defs><clipPath id="clip0_32_192"><path fill="#fff" d="M0 0h35.022v34H0z"/></clipPath></defs></svg>