<svg width="160" height="24" viewBox="0 0 160 24" fill="none" xmlns="http://www.w3.org/2000/svg">
<mask id="mask0_32_362" style="mask-type:alpha" maskUnits="userSpaceOnUse" x="0" y="0" width="160" height="24">
<path fill-rule="evenodd" clip-rule="evenodd" d="M41.6095 0C34.9396 0 29.5122 5.38266 29.5122 12C29.5122 18.6173 34.9385 24 41.6095 24C48.2804 24 53.7067 18.6173 53.7067 12C53.7067 5.38266 48.2796 0 41.6095 0ZM41.6095 19.8839C37.2256 19.8839 33.6605 16.3467 33.6605 11.9989C33.6605 7.6511 37.2264 4.11385 41.6095 4.11385C45.9925 4.11385 49.5587 7.65137 49.5587 11.9983C49.5587 16.3453 45.9928 19.8834 41.6095 19.8834V19.8839ZM19.9641 21.8111L19.7871 5.542L14.2606 18.6559C13.8322 19.6409 13.2304 20.1204 12.4208 20.1204C11.6328 20.1198 10.9625 19.5875 10.5815 18.6581L5.0548 5.54228L4.8775 21.8119C4.86751 23.0381 4.06205 23.771 2.72302 23.771C2.066 23.771 1.52689 23.5745 1.16453 23.2026C0.825196 22.8545 0.649009 22.3538 0.667876 21.7929C0.672139 21.6737 0.979923 11.6724 1.14714 6.23896L1.25248 2.81668C1.31824 1.25751 3.0668 0.0464995 4.52651 0.0464995C6.69514 0.0464995 7.60105 1.79916 7.89016 2.55384L12.4233 14.1327L16.9481 2.56155C17.7045 0.86916 18.8057 0.046224 20.3151 0.046224C21.774 0.046224 23.5225 1.25641 23.5891 2.81421L23.643 4.56577C23.7869 9.24048 24.169 21.6595 24.1737 21.7926C24.1926 22.3538 24.0164 22.8542 23.6771 23.2024C23.3147 23.5742 22.7759 23.7707 22.1186 23.7707C20.7796 23.7702 19.9741 23.0378 19.9641 21.8111ZM59.7505 2.33827C59.7505 1.0312 60.5884 0.250651 61.9915 0.250651L68.5837 0.252578C72.0511 0.252578 74.5677 2.57717 74.5677 5.78001C74.5677 7.86102 73.1099 10.5996 70.7515 11.0919L70.7759 11.134C74.0757 11.3853 76.577 13.9414 76.5937 16.8313C76.6048 18.7714 75.9963 20.4098 74.834 21.5696C73.5244 22.8759 71.5403 23.5664 69.0987 23.5664H62.0257C60.6661 23.5664 59.7505 22.714 59.7505 21.4452V2.33827ZM63.9587 20.0058H68.4813L68.4816 20.0055C70.7285 20.0055 72.1801 18.6591 72.1801 16.5753C72.1801 14.5975 70.6433 13.4168 68.0693 13.4168H63.9587V20.0058ZM63.9587 9.85616H67.1079V9.85588C69.1145 9.85588 70.3608 8.6457 70.3606 6.69735C70.3606 4.97139 69.0534 3.81184 67.1079 3.81184H63.9587V9.85616ZM110.122 0.250651C108.912 0.250651 108.259 1.22084 108.259 2.1335C108.259 3.04616 108.748 4.01606 110.122 4.01606H114.336V21.5815C114.336 22.9521 115.122 23.7707 116.44 23.7707C117.758 23.7707 118.544 22.9521 118.544 21.5815V4.01606H122.759C124.133 4.01606 124.623 3.04368 124.623 2.1335C124.623 1.22331 123.97 0.250651 122.759 0.250651H110.122ZM129.777 2.236C129.777 0.865081 130.563 0.0465495 131.881 0.0465495C133.198 0.0465495 133.985 0.865081 133.985 2.236V21.5816C133.985 22.9525 133.198 23.7708 131.881 23.7708C130.563 23.7708 129.777 22.9525 129.777 21.5816V2.236ZM157.156 0.0465495C156.51 0.0465495 155.751 0.482788 155.31 1.10756L150.031 8.35394L144.757 1.11334C144.313 0.484164 143.552 0.0465495 142.907 0.0465495C141.648 0.0465495 140.768 0.876641 140.768 2.06536C140.768 2.4782 140.925 2.89875 141.22 3.27912L147.461 11.8827L141.263 20.391C141.023 20.7171 140.768 21.2717 140.768 21.8543C140.768 23.0007 141.629 23.7708 142.907 23.7708C143.632 23.7708 144.202 23.468 144.652 22.843L150.031 15.4265L155.41 22.8416C155.86 23.4669 156.431 23.7708 157.156 23.7708C158.435 23.7708 159.294 23.0001 159.294 21.8543C159.294 21.2722 159.04 20.7174 158.801 20.3921L152.602 11.8825L158.839 3.28407C159.138 2.89875 159.294 2.47875 159.294 2.06536C159.294 0.876641 158.415 0.0465495 157.156 0.0465495ZM81.5418 12C81.5418 5.38266 86.9692 0 93.6391 0C100.309 0 105.736 5.38266 105.736 12C105.736 18.6173 100.31 24 93.6391 24C86.9681 24 81.5418 18.6173 81.5418 12ZM85.6901 11.9989C85.6901 16.3467 89.2552 19.8839 93.6391 19.8839V19.8834C98.0221 19.8834 101.588 16.3453 101.588 11.9983C101.588 7.65137 98.0221 4.11385 93.6391 4.11385C89.256 4.11385 85.6901 7.6511 85.6901 11.9989Z" fill="#004494"/>
</mask>
<g mask="url(#mask0_32_362)">
<rect x="0.666504" y="-0.634766" width="158.63" height="25.3807" fill="#606775"/>
</g>
</svg>
